<mxfile host="Electron" modified="2024-04-12T13:25:12.758Z" agent="Mozilla/5.0 (X11; Linux x86_64) AppleWebKit/537.36 (KHTML, like Gecko) draw.io/22.1.18 Chrome/120.0.6099.199 Electron/28.1.2 Safari/537.36" etag="bAqog3my1sXHcuaU9qnk" version="22.1.18" type="device">
  <diagram name="Page-1" id="03018318-947c-dd8e-b7a3-06fadd420f32">
    <mxGraphModel dx="1434" dy="839" grid="1" gridSize="10" guides="1" tooltips="1" connect="1" arrows="1" fold="1" page="1" pageScale="1" pageWidth="1100" pageHeight="850" background="#ffffff" math="0" shadow="0">
      <root>
        <mxCell id="0" />
        <mxCell id="1" parent="0" />
        <mxCell id="ytZ_dzGZJoyVutZE7Bco-4" value="" style="rounded=0;whiteSpace=wrap;html=1;" parent="1" vertex="1">
          <mxGeometry x="85" y="20" width="980" height="700" as="geometry" />
        </mxCell>
        <mxCell id="ytZ_dzGZJoyVutZE7Bco-6" value="" style="endArrow=none;html=1;entryX=1.001;entryY=0.034;entryDx=0;entryDy=0;entryPerimeter=0;exitX=-0.001;exitY=0.034;exitDx=0;exitDy=0;exitPerimeter=0;" parent="1" edge="1">
          <mxGeometry width="50" height="50" relative="1" as="geometry">
            <mxPoint x="84.02000000000021" y="84.75999999999999" as="sourcePoint" />
            <mxPoint x="1065.98" y="84.75999999999999" as="targetPoint" />
          </mxGeometry>
        </mxCell>
        <mxCell id="z7GxIXsAkPjxGo2HdkS--1" value="Показать расписание стилистов-парикмахеров" style="strokeWidth=1;shadow=0;dashed=0;align=center;html=1;shape=mxgraph.mockup.buttons.button;strokeColor=#666666;fontColor=#000000;mainText=;buttonStyle=round;fontSize=17;fontStyle=0;fillColor=none;whiteSpace=wrap;rounded=0;labelBackgroundColor=none;" parent="1" vertex="1">
          <mxGeometry x="611.5" y="260" width="428.5" height="36.5" as="geometry" />
        </mxCell>
        <mxCell id="z7GxIXsAkPjxGo2HdkS--3" value="&lt;span style=&quot;font-size: 18px&quot;&gt;&lt;b&gt;Выберите параметры&lt;/b&gt;&lt;/span&gt;" style="text;html=1;strokeColor=none;fillColor=none;align=left;verticalAlign=middle;whiteSpace=wrap;rounded=0;" parent="1" vertex="1">
          <mxGeometry x="128.5" y="160" width="390" height="20" as="geometry" />
        </mxCell>
        <mxCell id="z7GxIXsAkPjxGo2HdkS--4" value="&lt;span style=&quot;font-size: 24px;&quot;&gt;&lt;b&gt;Онлайн запись на прием в парикмахерскую &quot;Название&quot;&lt;/b&gt;&lt;/span&gt;" style="text;html=1;points=[];align=center;verticalAlign=top;spacingTop=-4;fontSize=30;fontFamily=Verdana;fontColor=#000000;" parent="1" vertex="1">
          <mxGeometry x="90" y="100" width="970" height="50" as="geometry" />
        </mxCell>
        <mxCell id="z7GxIXsAkPjxGo2HdkS--7" value="&lt;font style=&quot;font-size: 18px&quot; color=&quot;#000000&quot;&gt;Список услуг парикмахерской&lt;/font&gt;" style="html=1;shadow=0;dashed=0;shape=mxgraph.bootstrap.rrect;rSize=5;fillColor=#ffffff;strokeColor=#CED4DA;align=left;spacing=15;fontSize=14;fontColor=#6C767D;" parent="1" vertex="1">
          <mxGeometry x="309.75" y="200" width="730.25" height="40" as="geometry" />
        </mxCell>
        <mxCell id="z7GxIXsAkPjxGo2HdkS--8" value="" style="shape=triangle;direction=south;fillColor=#343A40;strokeColor=none;perimeter=none;" parent="z7GxIXsAkPjxGo2HdkS--7" vertex="1">
          <mxGeometry x="1" y="0.5" width="7" height="3" relative="1" as="geometry">
            <mxPoint x="-17" y="1" as="offset" />
          </mxGeometry>
        </mxCell>
        <mxCell id="z7GxIXsAkPjxGo2HdkS--9" value="" style="shape=triangle;direction=north;fillColor=#343A40;strokeColor=none;perimeter=none;" parent="z7GxIXsAkPjxGo2HdkS--7" vertex="1">
          <mxGeometry x="1" y="0.5" width="7" height="3" relative="1" as="geometry">
            <mxPoint x="-17" y="-4" as="offset" />
          </mxGeometry>
        </mxCell>
        <mxCell id="z7GxIXsAkPjxGo2HdkS--10" value="&lt;span style=&quot;font-size: 18px&quot;&gt;Выберите услугу&lt;/span&gt;" style="text;html=1;strokeColor=none;fillColor=none;align=left;verticalAlign=middle;whiteSpace=wrap;rounded=0;" parent="1" vertex="1">
          <mxGeometry x="128.5" y="210" width="179.75" height="20" as="geometry" />
        </mxCell>
        <mxCell id="z7GxIXsAkPjxGo2HdkS--12" value="&lt;font style=&quot;font-size: 18px&quot;&gt;Выбор даты и времени&lt;/font&gt;" style="strokeWidth=1;shadow=0;dashed=0;align=center;html=1;shape=mxgraph.mockup.text.textBox;fillColor=#ffffff;fontColor=#666666;align=left;fontSize=17;spacingLeft=4;spacingTop=-3;strokeColor=#666666;mainText=" parent="1" vertex="1">
          <mxGeometry x="320" y="260" width="270.25" height="36.5" as="geometry" />
        </mxCell>
        <mxCell id="z7GxIXsAkPjxGo2HdkS--13" value="&lt;span style=&quot;font-size: 18px&quot;&gt;Выберите дату/время&lt;/span&gt;" style="text;html=1;strokeColor=none;fillColor=none;align=left;verticalAlign=middle;whiteSpace=wrap;rounded=0;" parent="1" vertex="1">
          <mxGeometry x="128.5" y="268.25" width="189.75" height="20" as="geometry" />
        </mxCell>
        <mxCell id="z7GxIXsAkPjxGo2HdkS--22" value="" style="shape=table;html=1;whiteSpace=wrap;startSize=0;container=1;collapsible=0;childLayout=tableLayout;" parent="1" vertex="1">
          <mxGeometry x="130" y="365" width="910" height="120" as="geometry" />
        </mxCell>
        <mxCell id="z7GxIXsAkPjxGo2HdkS--23" value="" style="shape=partialRectangle;html=1;whiteSpace=wrap;collapsible=0;dropTarget=0;pointerEvents=0;fillColor=none;top=0;left=0;bottom=0;right=0;points=[[0,0.5],[1,0.5]];portConstraint=eastwest;" parent="z7GxIXsAkPjxGo2HdkS--22" vertex="1">
          <mxGeometry width="910" height="40" as="geometry" />
        </mxCell>
        <mxCell id="z7GxIXsAkPjxGo2HdkS--24" value="&lt;font style=&quot;font-size: 18px&quot;&gt;ФИО стилиста-парикмахера&lt;/font&gt;" style="shape=partialRectangle;html=1;whiteSpace=wrap;connectable=0;fillColor=none;top=0;left=0;bottom=0;right=0;overflow=hidden;" parent="z7GxIXsAkPjxGo2HdkS--23" vertex="1">
          <mxGeometry width="380" height="40" as="geometry">
            <mxRectangle width="380" height="40" as="alternateBounds" />
          </mxGeometry>
        </mxCell>
        <mxCell id="z7GxIXsAkPjxGo2HdkS--25" value="&lt;font style=&quot;font-size: 18px&quot;&gt;Телефон стилиста-парикмахера&lt;/font&gt;" style="shape=partialRectangle;html=1;whiteSpace=wrap;connectable=0;fillColor=none;top=0;left=0;bottom=0;right=0;overflow=hidden;" parent="z7GxIXsAkPjxGo2HdkS--23" vertex="1">
          <mxGeometry x="380" width="310" height="40" as="geometry">
            <mxRectangle width="310" height="40" as="alternateBounds" />
          </mxGeometry>
        </mxCell>
        <mxCell id="z7GxIXsAkPjxGo2HdkS--26" value="&lt;font style=&quot;font-size: 18px&quot;&gt;Запись&lt;/font&gt;" style="shape=partialRectangle;html=1;whiteSpace=wrap;connectable=0;fillColor=none;top=0;left=0;bottom=0;right=0;overflow=hidden;" parent="z7GxIXsAkPjxGo2HdkS--23" vertex="1">
          <mxGeometry x="690" width="220" height="40" as="geometry">
            <mxRectangle width="220" height="40" as="alternateBounds" />
          </mxGeometry>
        </mxCell>
        <mxCell id="z7GxIXsAkPjxGo2HdkS--27" value="" style="shape=partialRectangle;html=1;whiteSpace=wrap;collapsible=0;dropTarget=0;pointerEvents=0;fillColor=none;top=0;left=0;bottom=0;right=0;points=[[0,0.5],[1,0.5]];portConstraint=eastwest;" parent="z7GxIXsAkPjxGo2HdkS--22" vertex="1">
          <mxGeometry y="40" width="910" height="40" as="geometry" />
        </mxCell>
        <mxCell id="z7GxIXsAkPjxGo2HdkS--28" value="ФИО № 1" style="shape=partialRectangle;html=1;whiteSpace=wrap;connectable=0;fillColor=none;top=0;left=0;bottom=0;right=0;overflow=hidden;" parent="z7GxIXsAkPjxGo2HdkS--27" vertex="1">
          <mxGeometry width="380" height="40" as="geometry">
            <mxRectangle width="380" height="40" as="alternateBounds" />
          </mxGeometry>
        </mxCell>
        <mxCell id="z7GxIXsAkPjxGo2HdkS--29" value="Телефон № 1" style="shape=partialRectangle;html=1;whiteSpace=wrap;connectable=0;fillColor=none;top=0;left=0;bottom=0;right=0;overflow=hidden;" parent="z7GxIXsAkPjxGo2HdkS--27" vertex="1">
          <mxGeometry x="380" width="310" height="40" as="geometry">
            <mxRectangle width="310" height="40" as="alternateBounds" />
          </mxGeometry>
        </mxCell>
        <mxCell id="z7GxIXsAkPjxGo2HdkS--30" value="" style="shape=partialRectangle;html=1;whiteSpace=wrap;connectable=0;fillColor=none;top=0;left=0;bottom=0;right=0;overflow=hidden;" parent="z7GxIXsAkPjxGo2HdkS--27" vertex="1">
          <mxGeometry x="690" width="220" height="40" as="geometry">
            <mxRectangle width="220" height="40" as="alternateBounds" />
          </mxGeometry>
        </mxCell>
        <mxCell id="z7GxIXsAkPjxGo2HdkS--31" value="" style="shape=partialRectangle;html=1;whiteSpace=wrap;collapsible=0;dropTarget=0;pointerEvents=0;fillColor=none;top=0;left=0;bottom=0;right=0;points=[[0,0.5],[1,0.5]];portConstraint=eastwest;" parent="z7GxIXsAkPjxGo2HdkS--22" vertex="1">
          <mxGeometry y="80" width="910" height="40" as="geometry" />
        </mxCell>
        <mxCell id="z7GxIXsAkPjxGo2HdkS--32" value="ФИО № N" style="shape=partialRectangle;html=1;whiteSpace=wrap;connectable=0;fillColor=none;top=0;left=0;bottom=0;right=0;overflow=hidden;" parent="z7GxIXsAkPjxGo2HdkS--31" vertex="1">
          <mxGeometry width="380" height="40" as="geometry">
            <mxRectangle width="380" height="40" as="alternateBounds" />
          </mxGeometry>
        </mxCell>
        <mxCell id="z7GxIXsAkPjxGo2HdkS--33" value="Телефон № N" style="shape=partialRectangle;html=1;whiteSpace=wrap;connectable=0;fillColor=none;top=0;left=0;bottom=0;right=0;overflow=hidden;" parent="z7GxIXsAkPjxGo2HdkS--31" vertex="1">
          <mxGeometry x="380" width="310" height="40" as="geometry">
            <mxRectangle width="310" height="40" as="alternateBounds" />
          </mxGeometry>
        </mxCell>
        <mxCell id="z7GxIXsAkPjxGo2HdkS--34" value="" style="shape=partialRectangle;html=1;whiteSpace=wrap;connectable=0;fillColor=none;top=0;left=0;bottom=0;right=0;overflow=hidden;" parent="z7GxIXsAkPjxGo2HdkS--31" vertex="1">
          <mxGeometry x="690" width="220" height="40" as="geometry">
            <mxRectangle width="220" height="40" as="alternateBounds" />
          </mxGeometry>
        </mxCell>
        <mxCell id="z7GxIXsAkPjxGo2HdkS--85" value="&lt;span style=&quot;font-size: 18px;&quot;&gt;&lt;b&gt;Сотрудники, которые могут оказать выбранную услугу:&lt;/b&gt;&lt;/span&gt;" style="text;html=1;strokeColor=none;fillColor=none;align=left;verticalAlign=middle;whiteSpace=wrap;rounded=0;" parent="1" vertex="1">
          <mxGeometry x="130" y="330" width="599.5" height="20" as="geometry" />
        </mxCell>
        <mxCell id="z7GxIXsAkPjxGo2HdkS--86" value="Записаться" style="strokeWidth=1;shadow=0;dashed=0;align=center;html=1;shape=mxgraph.mockup.buttons.button;strokeColor=#666666;fontColor=#000000;mainText=;buttonStyle=round;fontSize=17;fontStyle=0;fillColor=none;whiteSpace=wrap;rounded=0;labelBackgroundColor=none;" parent="1" vertex="1">
          <mxGeometry x="874.25" y="410" width="110" height="30" as="geometry" />
        </mxCell>
        <mxCell id="z7GxIXsAkPjxGo2HdkS--94" value="Записаться" style="strokeWidth=1;shadow=0;dashed=0;align=center;html=1;shape=mxgraph.mockup.buttons.button;strokeColor=#666666;fontColor=#000000;mainText=;buttonStyle=round;fontSize=17;fontStyle=0;fillColor=none;whiteSpace=wrap;rounded=0;labelBackgroundColor=none;" parent="1" vertex="1">
          <mxGeometry x="874.25" y="450" width="110" height="30" as="geometry" />
        </mxCell>
        <mxCell id="z7GxIXsAkPjxGo2HdkS--95" value="&lt;span style=&quot;font-size: 18px&quot;&gt;&lt;b&gt;Ранее зарегистрированные записи на услуги парикмахерской:&lt;br&gt;&lt;/b&gt;&lt;/span&gt;" style="text;html=1;strokeColor=none;fillColor=none;align=left;verticalAlign=middle;whiteSpace=wrap;rounded=0;" parent="1" vertex="1">
          <mxGeometry x="128.5" y="510" width="571.5" height="20" as="geometry" />
        </mxCell>
        <mxCell id="z7GxIXsAkPjxGo2HdkS--96" value="" style="shape=table;html=1;whiteSpace=wrap;startSize=0;container=1;collapsible=0;childLayout=tableLayout;" parent="1" vertex="1">
          <mxGeometry x="130.5" y="540" width="439.5" height="120" as="geometry" />
        </mxCell>
        <mxCell id="z7GxIXsAkPjxGo2HdkS--97" value="" style="shape=partialRectangle;html=1;whiteSpace=wrap;collapsible=0;dropTarget=0;pointerEvents=0;fillColor=none;top=0;left=0;bottom=0;right=0;points=[[0,0.5],[1,0.5]];portConstraint=eastwest;" parent="z7GxIXsAkPjxGo2HdkS--96" vertex="1">
          <mxGeometry width="439.5" height="40" as="geometry" />
        </mxCell>
        <mxCell id="z7GxIXsAkPjxGo2HdkS--98" value="Дата/время" style="shape=partialRectangle;html=1;whiteSpace=wrap;connectable=0;fillColor=none;top=0;left=0;bottom=0;right=0;overflow=hidden;" parent="z7GxIXsAkPjxGo2HdkS--97" vertex="1">
          <mxGeometry width="139" height="40" as="geometry">
            <mxRectangle width="139" height="40" as="alternateBounds" />
          </mxGeometry>
        </mxCell>
        <mxCell id="z7GxIXsAkPjxGo2HdkS--99" value="Услуга" style="shape=partialRectangle;html=1;whiteSpace=wrap;connectable=0;fillColor=none;top=0;left=0;bottom=0;right=0;overflow=hidden;" parent="z7GxIXsAkPjxGo2HdkS--97" vertex="1">
          <mxGeometry x="139" width="150" height="40" as="geometry">
            <mxRectangle width="150" height="40" as="alternateBounds" />
          </mxGeometry>
        </mxCell>
        <mxCell id="z7GxIXsAkPjxGo2HdkS--100" value="ФИО парикмахера" style="shape=partialRectangle;html=1;whiteSpace=wrap;connectable=0;fillColor=none;top=0;left=0;bottom=0;right=0;overflow=hidden;" parent="z7GxIXsAkPjxGo2HdkS--97" vertex="1">
          <mxGeometry x="289" width="151" height="40" as="geometry">
            <mxRectangle width="151" height="40" as="alternateBounds" />
          </mxGeometry>
        </mxCell>
        <mxCell id="z7GxIXsAkPjxGo2HdkS--101" value="" style="shape=partialRectangle;html=1;whiteSpace=wrap;collapsible=0;dropTarget=0;pointerEvents=0;fillColor=none;top=0;left=0;bottom=0;right=0;points=[[0,0.5],[1,0.5]];portConstraint=eastwest;" parent="z7GxIXsAkPjxGo2HdkS--96" vertex="1">
          <mxGeometry y="40" width="439.5" height="40" as="geometry" />
        </mxCell>
        <mxCell id="z7GxIXsAkPjxGo2HdkS--102" value="12.04.2024" style="shape=partialRectangle;html=1;whiteSpace=wrap;connectable=0;fillColor=none;top=0;left=0;bottom=0;right=0;overflow=hidden;" parent="z7GxIXsAkPjxGo2HdkS--101" vertex="1">
          <mxGeometry width="139" height="40" as="geometry">
            <mxRectangle width="139" height="40" as="alternateBounds" />
          </mxGeometry>
        </mxCell>
        <mxCell id="z7GxIXsAkPjxGo2HdkS--103" value="Стрижка" style="shape=partialRectangle;html=1;whiteSpace=wrap;connectable=0;fillColor=none;top=0;left=0;bottom=0;right=0;overflow=hidden;" parent="z7GxIXsAkPjxGo2HdkS--101" vertex="1">
          <mxGeometry x="139" width="150" height="40" as="geometry">
            <mxRectangle width="150" height="40" as="alternateBounds" />
          </mxGeometry>
        </mxCell>
        <mxCell id="z7GxIXsAkPjxGo2HdkS--104" value="ФИО № 1" style="shape=partialRectangle;html=1;whiteSpace=wrap;connectable=0;fillColor=none;top=0;left=0;bottom=0;right=0;overflow=hidden;" parent="z7GxIXsAkPjxGo2HdkS--101" vertex="1">
          <mxGeometry x="289" width="151" height="40" as="geometry">
            <mxRectangle width="151" height="40" as="alternateBounds" />
          </mxGeometry>
        </mxCell>
        <mxCell id="z7GxIXsAkPjxGo2HdkS--105" value="" style="shape=partialRectangle;html=1;whiteSpace=wrap;collapsible=0;dropTarget=0;pointerEvents=0;fillColor=none;top=0;left=0;bottom=0;right=0;points=[[0,0.5],[1,0.5]];portConstraint=eastwest;" parent="z7GxIXsAkPjxGo2HdkS--96" vertex="1">
          <mxGeometry y="80" width="439.5" height="40" as="geometry" />
        </mxCell>
        <mxCell id="z7GxIXsAkPjxGo2HdkS--106" value="20.05.2024" style="shape=partialRectangle;html=1;whiteSpace=wrap;connectable=0;fillColor=none;top=0;left=0;bottom=0;right=0;overflow=hidden;" parent="z7GxIXsAkPjxGo2HdkS--105" vertex="1">
          <mxGeometry width="139" height="40" as="geometry">
            <mxRectangle width="139" height="40" as="alternateBounds" />
          </mxGeometry>
        </mxCell>
        <mxCell id="z7GxIXsAkPjxGo2HdkS--107" value="Стрижка" style="shape=partialRectangle;html=1;whiteSpace=wrap;connectable=0;fillColor=none;top=0;left=0;bottom=0;right=0;overflow=hidden;" parent="z7GxIXsAkPjxGo2HdkS--105" vertex="1">
          <mxGeometry x="139" width="150" height="40" as="geometry">
            <mxRectangle width="150" height="40" as="alternateBounds" />
          </mxGeometry>
        </mxCell>
        <mxCell id="z7GxIXsAkPjxGo2HdkS--108" value="&lt;span style=&quot;color: rgb(0, 0, 0); font-family: Helvetica; font-size: 12px; font-style: normal; font-variant-ligatures: normal; font-variant-caps: normal; font-weight: 400; letter-spacing: normal; orphans: 2; text-align: center; text-indent: 0px; text-transform: none; widows: 2; word-spacing: 0px; -webkit-text-stroke-width: 0px; background-color: rgb(251, 251, 251); text-decoration-thickness: initial; text-decoration-style: initial; text-decoration-color: initial; float: none; display: inline !important;&quot;&gt;ФИО № N&lt;/span&gt;" style="shape=partialRectangle;html=1;whiteSpace=wrap;connectable=0;fillColor=none;top=0;left=0;bottom=0;right=0;overflow=hidden;" parent="z7GxIXsAkPjxGo2HdkS--105" vertex="1">
          <mxGeometry x="289" width="151" height="40" as="geometry">
            <mxRectangle width="151" height="40" as="alternateBounds" />
          </mxGeometry>
        </mxCell>
        <mxCell id="z7GxIXsAkPjxGo2HdkS--109" value="" style="shape=table;html=1;whiteSpace=wrap;startSize=0;container=1;collapsible=0;childLayout=tableLayout;" parent="1" vertex="1">
          <mxGeometry x="570" y="540" width="470" height="120" as="geometry" />
        </mxCell>
        <mxCell id="z7GxIXsAkPjxGo2HdkS--110" value="" style="shape=partialRectangle;html=1;whiteSpace=wrap;collapsible=0;dropTarget=0;pointerEvents=0;fillColor=none;top=0;left=0;bottom=0;right=0;points=[[0,0.5],[1,0.5]];portConstraint=eastwest;" parent="z7GxIXsAkPjxGo2HdkS--109" vertex="1">
          <mxGeometry width="470" height="40" as="geometry" />
        </mxCell>
        <mxCell id="z7GxIXsAkPjxGo2HdkS--111" value="Телефон мастера" style="shape=partialRectangle;html=1;whiteSpace=wrap;connectable=0;fillColor=none;top=0;left=0;bottom=0;right=0;overflow=hidden;" parent="z7GxIXsAkPjxGo2HdkS--110" vertex="1">
          <mxGeometry width="148" height="40" as="geometry">
            <mxRectangle width="148" height="40" as="alternateBounds" />
          </mxGeometry>
        </mxCell>
        <mxCell id="z7GxIXsAkPjxGo2HdkS--112" value="Статус услуги, цена" style="shape=partialRectangle;html=1;whiteSpace=wrap;connectable=0;fillColor=none;top=0;left=0;bottom=0;right=0;overflow=hidden;" parent="z7GxIXsAkPjxGo2HdkS--110" vertex="1">
          <mxGeometry x="148" width="161" height="40" as="geometry">
            <mxRectangle width="161" height="40" as="alternateBounds" />
          </mxGeometry>
        </mxCell>
        <mxCell id="z7GxIXsAkPjxGo2HdkS--113" value="Отмена записи" style="shape=partialRectangle;html=1;whiteSpace=wrap;connectable=0;fillColor=none;top=0;left=0;bottom=0;right=0;overflow=hidden;" parent="z7GxIXsAkPjxGo2HdkS--110" vertex="1">
          <mxGeometry x="309" width="161" height="40" as="geometry">
            <mxRectangle width="161" height="40" as="alternateBounds" />
          </mxGeometry>
        </mxCell>
        <mxCell id="z7GxIXsAkPjxGo2HdkS--114" value="" style="shape=partialRectangle;html=1;whiteSpace=wrap;collapsible=0;dropTarget=0;pointerEvents=0;fillColor=none;top=0;left=0;bottom=0;right=0;points=[[0,0.5],[1,0.5]];portConstraint=eastwest;" parent="z7GxIXsAkPjxGo2HdkS--109" vertex="1">
          <mxGeometry y="40" width="470" height="40" as="geometry" />
        </mxCell>
        <mxCell id="z7GxIXsAkPjxGo2HdkS--115" value="Телефон № 1" style="shape=partialRectangle;html=1;whiteSpace=wrap;connectable=0;fillColor=none;top=0;left=0;bottom=0;right=0;overflow=hidden;" parent="z7GxIXsAkPjxGo2HdkS--114" vertex="1">
          <mxGeometry width="148" height="40" as="geometry">
            <mxRectangle width="148" height="40" as="alternateBounds" />
          </mxGeometry>
        </mxCell>
        <mxCell id="z7GxIXsAkPjxGo2HdkS--116" value="Оказана" style="shape=partialRectangle;html=1;whiteSpace=wrap;connectable=0;fillColor=none;top=0;left=0;bottom=0;right=0;overflow=hidden;" parent="z7GxIXsAkPjxGo2HdkS--114" vertex="1">
          <mxGeometry x="148" width="161" height="40" as="geometry">
            <mxRectangle width="161" height="40" as="alternateBounds" />
          </mxGeometry>
        </mxCell>
        <mxCell id="z7GxIXsAkPjxGo2HdkS--117" value="" style="shape=partialRectangle;html=1;whiteSpace=wrap;connectable=0;fillColor=none;top=0;left=0;bottom=0;right=0;overflow=hidden;" parent="z7GxIXsAkPjxGo2HdkS--114" vertex="1">
          <mxGeometry x="309" width="161" height="40" as="geometry">
            <mxRectangle width="161" height="40" as="alternateBounds" />
          </mxGeometry>
        </mxCell>
        <mxCell id="z7GxIXsAkPjxGo2HdkS--118" value="" style="shape=partialRectangle;html=1;whiteSpace=wrap;collapsible=0;dropTarget=0;pointerEvents=0;fillColor=none;top=0;left=0;bottom=0;right=0;points=[[0,0.5],[1,0.5]];portConstraint=eastwest;" parent="z7GxIXsAkPjxGo2HdkS--109" vertex="1">
          <mxGeometry y="80" width="470" height="40" as="geometry" />
        </mxCell>
        <mxCell id="z7GxIXsAkPjxGo2HdkS--119" value="Телефон № N" style="shape=partialRectangle;html=1;whiteSpace=wrap;connectable=0;fillColor=none;top=0;left=0;bottom=0;right=0;overflow=hidden;" parent="z7GxIXsAkPjxGo2HdkS--118" vertex="1">
          <mxGeometry width="148" height="40" as="geometry">
            <mxRectangle width="148" height="40" as="alternateBounds" />
          </mxGeometry>
        </mxCell>
        <mxCell id="z7GxIXsAkPjxGo2HdkS--120" value="Еще не оказана" style="shape=partialRectangle;html=1;whiteSpace=wrap;connectable=0;fillColor=none;top=0;left=0;bottom=0;right=0;overflow=hidden;" parent="z7GxIXsAkPjxGo2HdkS--118" vertex="1">
          <mxGeometry x="148" width="161" height="40" as="geometry">
            <mxRectangle width="161" height="40" as="alternateBounds" />
          </mxGeometry>
        </mxCell>
        <mxCell id="z7GxIXsAkPjxGo2HdkS--121" value="" style="shape=partialRectangle;html=1;whiteSpace=wrap;connectable=0;fillColor=none;top=0;left=0;bottom=0;right=0;overflow=hidden;" parent="z7GxIXsAkPjxGo2HdkS--118" vertex="1">
          <mxGeometry x="309" width="161" height="40" as="geometry">
            <mxRectangle width="161" height="40" as="alternateBounds" />
          </mxGeometry>
        </mxCell>
        <mxCell id="z7GxIXsAkPjxGo2HdkS--124" value="Отменить" style="strokeWidth=1;shadow=0;dashed=0;align=center;html=1;shape=mxgraph.mockup.buttons.button;strokeColor=#666666;fontColor=#000000;mainText=;buttonStyle=round;fontSize=17;fontStyle=0;fillColor=none;whiteSpace=wrap;rounded=0;labelBackgroundColor=none;" parent="1" vertex="1">
          <mxGeometry x="910" y="624" width="108.75" height="30" as="geometry" />
        </mxCell>
        <mxCell id="MCcDxRCmYWLVEvXrEED2-8" value="© 2024 Copyright: Парикмахерский салон &quot;Название&quot;" style="text;html=1;points=[];align=left;verticalAlign=top;spacingTop=-4;fontSize=14;fontFamily=Verdana" parent="1" vertex="1">
          <mxGeometry x="415" y="680" width="340" height="20" as="geometry" />
        </mxCell>
        <mxCell id="eESTSpCIKtKqLJm70lq--1" value="Телефон&amp;nbsp; &amp;nbsp; &amp;nbsp; О нас&amp;nbsp; &amp;nbsp; &amp;nbsp; &amp;nbsp;Наши услуги и цены&lt;span style=&quot;white-space: pre;&quot;&gt;&#x9;&lt;/span&gt;Операция 1&lt;span style=&quot;white-space: pre;&quot;&gt;&#x9;&lt;/span&gt;Операция 2" style="text;html=1;points=[];align=left;verticalAlign=top;spacingTop=-4;fontSize=14;fontFamily=Verdana" vertex="1" parent="1">
          <mxGeometry x="267" y="41" width="543" height="20" as="geometry" />
        </mxCell>
        <mxCell id="eESTSpCIKtKqLJm70lq--2" value="ФИО Выйти" style="text;html=1;points=[];align=left;verticalAlign=top;spacingTop=-4;fontSize=14;fontFamily=Verdana" vertex="1" parent="1">
          <mxGeometry x="960" y="41" width="90.25" height="20" as="geometry" />
        </mxCell>
        <mxCell id="eESTSpCIKtKqLJm70lq--3" value="&lt;font style=&quot;font-size: 18px&quot;&gt;Название&lt;/font&gt;" style="text;html=1;strokeColor=none;fillColor=none;align=center;verticalAlign=middle;whiteSpace=wrap;rounded=0;" vertex="1" parent="1">
          <mxGeometry x="147" y="41" width="90" height="20" as="geometry" />
        </mxCell>
        <mxCell id="eESTSpCIKtKqLJm70lq--4" value="" style="verticalLabelPosition=bottom;shadow=0;dashed=0;align=center;html=1;verticalAlign=top;strokeWidth=1;shape=mxgraph.mockup.graphics.simpleIcon;strokeColor=#999999;rounded=0;labelBackgroundColor=none;fontFamily=Verdana;fontSize=14;fontColor=#000000;comic=1;" vertex="1" parent="1">
          <mxGeometry x="97" y="26" width="50" height="50" as="geometry" />
        </mxCell>
      </root>
    </mxGraphModel>
  </diagram>
</mxfile>
